<?xml version="1.0" encoding="UTF-8"?>
<svg width="46px" height="28px" viewBox="0 0 46 28" version="1.1" xmlns="http://www.w3.org/2000/svg" xmlns:xlink="http://www.w3.org/1999/xlink">
    <!-- Generator: Sketch 55.2 (78181) - https://sketchapp.com -->
    <title>arrow_next</title>
    <desc>Created with Sketch.</desc>
    <g id="Page-1" stroke="none" stroke-width="1" fill="none" fill-rule="evenodd">
        <g id="Artboard" transform="translate(-494.000000, -109.000000)" fill="#000000" fill-rule="nonzero">
            <g id="arrow_next" transform="translate(494.000000, 109.000000)">
                <path d="M44.939,12.978 L31.268,1.167 C30.641,0.625 29.693,0.696 29.153,1.322 C28.611,1.949 28.68,2.896 29.307,3.438 L39.786,12.49 L2.444,12.49 C1.616,12.49 0.944,13.161 0.944,13.99 C0.944,14.819 1.616,15.49 2.444,15.49 L40.163,15.49 L34.19,20.821 L29.524,24.511 C28.875,25.025 28.764,25.968 29.278,26.618 C29.574,26.992 30.013,27.187 30.456,27.187 C30.782,27.187 31.11,27.082 31.386,26.863 L36.119,23.115 L44.957,15.231 C45.279,14.944 45.462,14.532 45.4590363,14.1 C45.455,13.669 45.267,13.26 44.939,12.978 Z" id="Path"></path>
            </g>
        </g>
    </g>
</svg>