<?xml version="1.0" encoding="UTF-8"?>
<svg width="141px" height="38px" viewBox="0 0 141 38" version="1.1" xmlns="http://www.w3.org/2000/svg" xmlns:xlink="http://www.w3.org/1999/xlink">
    <!-- Generator: Sketch 52.5 (67469) - http://www.bohemiancoding.com/sketch -->
    <title>drive logos</title>
    <desc>Created with Sketch.</desc>
    <defs>
        <linearGradient x1="0%" y1="66.4874433%" x2="100%" y2="66.4874434%" id="linearGradient-1">
            <stop stop-color="#20C0FF" stop-opacity="0.409278759" offset="0%"></stop>
            <stop stop-color="#009BFF" offset="100%"></stop>
        </linearGradient>
        <linearGradient x1="47.4575433%" y1="108.373297%" x2="100%" y2="31.7718924%" id="linearGradient-2">
            <stop stop-color="#4BCDFF" stop-opacity="0" offset="0%"></stop>
            <stop stop-color="#1A8CF7" offset="100%"></stop>
        </linearGradient>
        <linearGradient x1="100%" y1="0%" x2="26.8860246%" y2="91.7243014%" id="linearGradient-3">
            <stop stop-color="#004FFF" offset="0%"></stop>
            <stop stop-color="#72BEFA" stop-opacity="0" offset="100%"></stop>
        </linearGradient>
        <linearGradient x1="87.8317646%" y1="112.009052%" x2="33.1501909%" y2="102.566618%" id="linearGradient-4">
            <stop stop-color="#3B84EE" offset="0%"></stop>
            <stop stop-color="#3F9BF2" stop-opacity="0.608382602" offset="57.5151057%"></stop>
            <stop stop-color="#44A0F9" stop-opacity="0" offset="100%"></stop>
        </linearGradient>
        <linearGradient x1="23.1549876%" y1="82.466394%" x2="4.39422515%" y2="8.46917878%" id="linearGradient-5">
            <stop stop-color="#8ADBFF" stop-opacity="0" offset="0%"></stop>
            <stop stop-color="#66C5F3" offset="100%"></stop>
        </linearGradient>
        <radialGradient cx="44.413682%" cy="30.3098%" fx="44.413682%" fy="30.3098%" r="63.2991227%" gradientTransform="translate(0.444137,0.303098),scale(0.983485,1.000000),rotate(115.080803),scale(1.000000,0.706718),translate(-0.444137,-0.303098)" id="radialGradient-6">
            <stop stop-color="#A5EEFB" stop-opacity="0.15" offset="0%"></stop>
            <stop stop-color="#3A98F6" stop-opacity="0" offset="100%"></stop>
        </radialGradient>
        <radialGradient cx="29.2017805%" cy="24.9998245%" fx="29.2017805%" fy="24.9998245%" r="16.7349085%" gradientTransform="translate(0.292018,0.249998),scale(0.747703,1.000000),rotate(-56.999116),scale(1.000000,1.814650),translate(-0.292018,-0.249998)" id="radialGradient-7">
            <stop stop-color="#ACE8FF" stop-opacity="0.15" offset="0%"></stop>
            <stop stop-color="#59C2F8" stop-opacity="0" offset="100%"></stop>
        </radialGradient>
        <radialGradient cx="48.8857865%" cy="51.121376%" fx="48.8857865%" fy="51.121376%" r="38.4448291%" gradientTransform="translate(0.488858,0.511214),scale(0.983485,1.000000),rotate(90.000000),translate(-0.488858,-0.511214)" id="radialGradient-8">
            <stop stop-color="#B3E3FA" stop-opacity="0.2" offset="0%"></stop>
            <stop stop-color="#D8D8D8" stop-opacity="0" offset="100%"></stop>
        </radialGradient>
        <linearGradient x1="36.9133437%" y1="0%" x2="100%" y2="52.6768526%" id="linearGradient-9">
            <stop stop-color="#14AFF8" offset="0%"></stop>
            <stop stop-color="#4FC0FB" stop-opacity="0" offset="100%"></stop>
        </linearGradient>
        <linearGradient x1="114.972534%" y1="84.4681844%" x2="0%" y2="0%" id="linearGradient-10">
            <stop stop-color="#89D8FA" stop-opacity="0" offset="0%"></stop>
            <stop stop-color="#06ADFF" stop-opacity="0.5" offset="100%"></stop>
        </linearGradient>
        <linearGradient x1="0%" y1="66.4874433%" x2="100%" y2="66.4874434%" id="linearGradient-11">
            <stop stop-color="#4BCDFF" stop-opacity="0.409278759" offset="0%"></stop>
            <stop stop-color="#38BAFC" offset="100%"></stop>
        </linearGradient>
        <path d="M0,17.0537897 C0,13.7687761 2.0268542,10.9493413 4.91774038,9.73910309 C5.35605476,6.95778536 7.80130663,4.82885086 10.7521478,4.82885086 C11.6337106,4.82885086 12.4701489,5.01886116 13.221431,5.35951124 C15.1155671,2.15468941 18.6445143,0 22.6851673,0 C28.5374097,0 33.3162517,4.5198725 33.6095064,10.2037842 C37.0141317,10.9501954 39.5592027,13.9389022 39.5592027,17.5122249 C39.5592027,21.6476089 36.1505159,25 31.9456876,25 C31.9249511,25 8.07964862,25 8.07964862,25 C3.6173819,25 0,21.4423605 0,17.0537897 Z" id="path-12"></path>
        <radialGradient cx="56.8236589%" cy="50%" fx="56.8236589%" fy="50%" r="42.5661217%" gradientTransform="translate(0.568237,0.500000),scale(0.983485,1.000000),rotate(90.000000),scale(1.000000,1.056137),translate(-0.568237,-0.500000)" id="radialGradient-14">
            <stop stop-color="#23B2F8" stop-opacity="0.651777627" offset="0%"></stop>
            <stop stop-color="#2DB6FA" stop-opacity="0.423774497" offset="62.7432297%"></stop>
            <stop stop-color="#40BFFE" stop-opacity="0" offset="100%"></stop>
        </radialGradient>
    </defs>
    <g id="drive-logos" stroke="none" stroke-width="1" fill="none" fill-rule="evenodd">
        <g id="dropbox" transform="translate(55.000000, 4.000000)" fill="#2D8EF0">
            <polygon id="Fill-37" points="9.4132 0.1182 0.0002 6.2642 6.5092 11.4762 16.0002 5.6162"></polygon>
            <polygon id="Fill-38" points="0 16.689 9.413 22.835 16 17.337 6.509 11.477"></polygon>
            <polygon id="Fill-39" points="15.9998 17.3371 22.5868 22.8351 31.9998 16.6891 25.4908 11.4761"></polygon>
            <polygon id="Fill-40" points="32 6.2643 22.587 0.1183 16 5.6163 25.491 11.4763"></polygon>
            <polygon id="Fill-41" points="16.0193 18.5199 9.4133 24.0019 6.5863 22.1559 6.5863 24.2249 16.0193 29.8819 25.4523 24.2249 25.4523 22.1559 22.6253 24.0019"></polygon>
        </g>
        <g id="google" transform="translate(8.000000, 4.000000)">
            <g id="Path-1-+-Path-2-+-Path-3">
                <path d="M6.265625,29.8329466 L17.3730469,10.6282552 C17.3730469,10.6282552 14.1797386,4.96693625 12.5287005,2.15177409 C12.3104587,1.77965292 12.0024185,1.17345076 11.7208112,0.737304688 C11.4846517,0.371546941 11.333388,0.0805664063 11.333388,0.0805664063 C11.333388,0.0805664063 11.2987628,0.0500216564 11.2813047,0.0805664063 C7.58422631,6.54899084 0.189778646,19.577474 0.189778646,19.577474 L6.265625,29.8329466 Z" id="Path-1" fill="#009B58"></path>
                <polygon id="Path-2" fill="#2872F1" points="6.27398004 29.8180339 28.3191861 29.8180339 34.6791187 19.6721191 12.1617298 19.648763"></polygon>
                <polygon id="Path-3" fill="#FCCD38" points="11.3333333 0.0669909619 23.5547105 0.0669909619 34.6936646 19.6690063 22.524038 19.6690063"></polygon>
            </g>
            <polygon id="Path-4" fill-opacity="0.6" fill="#296CDE" points="6.27685547 29.8450928 16.9796143 19.6837158 12.1466878 19.6837158"></polygon>
            <path d="M23.6305135,19.6751709 C27.3239219,19.6883719 34.7091882,19.675171 34.7091882,19.675171 L20.1365967,15.4533285 L22.5355021,19.6751709 C22.5355021,19.6751709 23.2634834,19.6738591 23.6305135,19.6751709 Z" id="Path-6" fill-opacity="0.6" fill="#EDC537"></path>
            <polygon id="Path-6" fill-opacity="0.699999988" fill="#009557" points="17.4136285 10.7152778 14.9194878 14.7452257 11.3331163 0.0794270833"></polygon>
        </g>
        <g id="Icon" transform="translate(99.000000, 7.000000)">
            <g id="Background">
                <path d="M8.07964862,25 C3.6173819,25 0,21.4423605 0,17.0537897 C0,13.7687761 2.0268542,10.9493413 4.91774038,9.73910309 C5.35605476,6.95778536 7.80130663,4.82885086 10.7521478,4.82885086 C11.6337106,4.82885086 12.4701489,5.01886116 13.221431,5.35951124 C15.1155671,2.15468941 18.6445143,0 22.6851673,0 C28.5374097,0 33.3162517,4.5198725 33.6095064,10.2037842 C37.0141317,10.9501954 39.5592027,13.9389022 39.5592027,17.5122249 C39.5592027,21.6476089 36.1505159,25 31.9456876,25 C31.9249511,25 31.904234,24.9999185 31.8835365,24.9997557 L8.07964862,25 L8.07964862,25 Z" id="White-Background" fill="#FFFFFF"></path>
                <path d="M8.07964862,25 C3.6173819,25 0,21.4423605 0,17.0537897 C0,13.7687761 2.0268542,10.9493413 4.91774038,9.73910309 C5.35605476,6.95778536 7.80130663,4.82885086 10.7521478,4.82885086 C11.6337106,4.82885086 12.4701489,5.01886116 13.221431,5.35951124 C15.1155671,2.15468941 18.6445143,0 22.6851673,0 C28.5374097,0 33.3162517,4.5198725 33.6095064,10.2037842 C37.0141317,10.9501954 39.5592027,13.9389022 39.5592027,17.5122249 C39.5592027,21.6476089 36.1505159,25 31.9456876,25 C31.9249511,25 31.904234,24.9999185 31.8835365,24.9997557 L8.07964862,25 L8.07964862,25 Z" id="Blue-Background" fill="url(#linearGradient-1)"></path>
            </g>
            <path d="M22.6851673,21.5158924 C28.7263899,21.5158924 33.6237685,16.6993958 33.6237685,10.7579462 C33.6237685,4.81649658 28.7263899,0 22.6851673,0 C16.6439447,0 11.7465661,4.81649658 11.7465661,10.7579462 C11.7465661,16.6993958 16.6439447,21.5158924 22.6851673,21.5158924 Z" id="Big-Oval" fill="url(#linearGradient-2)"></path>
            <path d="M25.31917,21.2019433 C30.0880473,20.0424759 33.6237685,15.8062977 33.6237685,10.7579462 C33.6237685,10.572087 33.6189762,10.3873287 33.6095064,10.2037842 C33.0739802,10.0863783 32.5171874,10.0244499 31.9456876,10.0244499 C27.7408594,10.0244499 24.3321726,13.376841 24.3321726,17.5122249 C24.3321726,18.8537736 24.6909031,20.11292 25.31917,21.2019433 L25.31917,21.2019433 Z" id="Overlay-2" fill="url(#linearGradient-3)" opacity="0.120685634"></path>
            <path d="M31.9456876,25 C36.1505159,25 39.5592027,21.6476089 39.5592027,17.5122249 C39.5592027,13.376841 36.1505159,10.0244499 31.9456876,10.0244499 C27.7408594,10.0244499 24.3321726,13.376841 24.3321726,17.5122249 C24.3321726,21.6476089 27.7408594,25 31.9456876,25 Z" id="Oval-Right" fill="url(#linearGradient-4)"></path>
            <path d="M15.5499369,14.020933 C14.3380782,11.1369365 11.449834,9.10757946 8.07964862,9.10757946 C6.95755981,9.10757946 5.88889555,9.33253949 4.91774038,9.73910309 C4.87168684,10.0313352 4.84778917,10.3307713 4.84778917,10.6356968 C4.84778917,13.8427293 7.49126057,16.4425428 10.7521478,16.4425428 C12.7286122,16.4425428 14.4782552,15.4874432 15.5499369,14.020933 L15.5499369,14.020933 Z" id="Overlay-1" fill="url(#linearGradient-5)"></path>
            <g id="White-Shade" transform="translate(4.847789, 0.000000)">
                <path d="M27.0978985,25 C31.3027267,25 34.7114135,21.6476089 34.7114135,17.5122249 C34.7114135,13.376841 31.3027267,10.0244499 27.0978985,10.0244499 C22.8930702,10.0244499 19.4843834,13.376841 19.4843834,17.5122249 C19.4843834,21.6476089 22.8930702,25 27.0978985,25 L27.0978985,25 L27.0978985,25 L27.0978985,25 L27.0978985,25 L27.0978985,25 Z M20.4713809,21.2019433 C25.2402581,20.0424759 28.7759793,15.8062977 28.7759793,10.7579462 C28.7759793,10.572087 28.771187,10.3873287 28.7617172,10.2037842 C28.226191,10.0863783 27.6693983,10.0244499 27.0978985,10.0244499 C22.8930702,10.0244499 19.4843834,13.376841 19.4843834,17.5122249 C19.4843834,18.8537736 19.8431139,20.11292 20.4713809,21.2019433 L20.4713809,21.2019433 L20.4713809,21.2019433 L20.4713809,21.2019433 L20.4713809,21.2019433 L20.4713809,21.2019433 L20.4713809,21.2019433 Z" fill="url(#radialGradient-6)"></path>
                <path d="M8.26119238,15.9614695 C7.53924825,16.2709196 6.74218237,16.4425428 5.90435861,16.4425428 C2.64347139,16.4425428 0,13.8427293 0,10.6356968 C0,7.42866435 2.64347139,4.82885086 5.90435861,4.82885086 C6.78592143,4.82885086 7.62235971,5.01886116 8.37364178,5.35951124 C10.2677779,2.15468941 13.7967252,0 17.8373781,0 C23.8786007,0 28.7759793,4.81649658 28.7759793,10.7579462 C28.7759793,16.6993958 23.8786007,21.5158924 17.8373781,21.5158924 C13.7153433,21.5158924 10.1258341,19.2735348 8.26119238,15.9614695 Z M8.26119238,15.9614695 C10.3491213,15.0665115 11.8087172,13.0187425 11.8087172,10.6356968 C11.8087172,8.29566783 10.4013405,6.27892053 8.37364178,5.35951124 C7.43583511,6.94625216 6.8987769,8.79041667 6.8987769,10.7579462 C6.8987769,12.645438 7.3930295,14.4193973 8.26119238,15.9614695 Z" fill="url(#radialGradient-7)"></path>
                <ellipse fill="url(#radialGradient-8)" cx="7.3338349" cy="11.8887531" rx="5.87328304" ry="5.77628362"></ellipse>
            </g>
            <path d="M11.7465661,10.7579462 C11.7465661,12.645438 12.2408187,14.4193973 13.1089816,15.9614695 C15.1969105,15.0665115 16.6565064,13.0187425 16.6565064,10.6356968 C16.6565064,8.29566783 15.2491296,6.27892053 13.221431,5.35951124 C12.2836244,6.9462516 11.7465661,8.79041637 11.7465661,10.7579462 Z" id="Overlay-3" fill="url(#linearGradient-9)"></path>
            <path d="M15.8689456,19.1724141 C16.0581952,18.4979233 16.1592972,17.7874683 16.1592972,17.0537897 C16.1592972,13.9745481 14.378413,11.3043847 11.7743524,9.9851907 C11.7559328,10.2404184 11.7465661,10.4981065 11.7465661,10.7579462 C11.7465661,14.1645155 13.3565194,17.2012702 15.868945,19.1724136 L15.8689456,19.1724141 Z" id="Overlay-4" fill="url(#linearGradient-10)"></path>
            <g id="Blue-Shade">
                <mask id="mask-13" fill="white">
                    <use xlink:href="#path-12"></use>
                </mask>
                <use id="Mask" fill="url(#linearGradient-11)" opacity="0" xlink:href="#path-12"></use>
                <path d="M20.4788017,41.3202934 C29.7122613,41.3202934 37.1974592,33.9587162 37.1974592,24.8777506 C37.1974592,15.796785 29.7122613,8.43520782 20.4788017,8.43520782 C11.2453421,8.43520782 3.76014417,15.796785 3.76014417,24.8777506 C3.76014417,33.9587162 11.2453421,41.3202934 20.4788017,41.3202934 Z" id="Oval-163" fill="url(#radialGradient-14)" mask="url(#mask-13)"></path>
            </g>
        </g>
    </g>
</svg>